<svg xmlns="http://www.w3.org/2000/svg" xmlns:xlink="http://www.w3.org/1999/xlink" width="945" zoomAndPan="magnify" viewBox="0 0 708.75 212.249992" height="283" preserveAspectRatio="xMidYMid meet" version="1.2"><defs><clipPath id="753870a166"><path d="M 513.816406 9.21875 L 706.628906 9.21875 L 706.628906 202.28125 L 513.816406 202.28125 Z M 513.816406 9.21875 "/></clipPath><clipPath id="99cb3761e2"><path d="M 610.347656 9.21875 C 557.035156 9.21875 513.816406 52.4375 513.816406 105.75 C 513.816406 159.0625 557.035156 202.28125 610.347656 202.28125 C 663.660156 202.28125 706.878906 159.0625 706.878906 105.75 C 706.878906 52.4375 663.660156 9.21875 610.347656 9.21875 Z M 610.347656 9.21875 "/></clipPath><clipPath id="3abd542d23"><path d="M 682.179688 24.050781 L 692.480469 24.050781 L 692.480469 36.734375 L 682.179688 36.734375 Z M 682.179688 24.050781 "/></clipPath><clipPath id="c1732e4bc1"><path d="M 693.925781 24.050781 L 706.230469 24.050781 L 706.230469 36.734375 L 693.925781 36.734375 Z M 693.925781 24.050781 "/></clipPath></defs><g id="3151a9833b"><g clip-rule="nonzero" clip-path="url(#753870a166)"><g clip-rule="nonzero" clip-path="url(#99cb3761e2)"><path style=" stroke:none;fill-rule:nonzero;fill:#fad02c;fill-opacity:1;" d="M 513.816406 9.21875 L 706.878906 9.21875 L 706.878906 202.28125 L 513.816406 202.28125 Z M 513.816406 9.21875 "/></g></g><g clip-rule="nonzero" clip-path="url(#3abd542d23)"><path style=" stroke:none;fill-rule:nonzero;fill:#737373;fill-opacity:1;" d="M 692.453125 24.050781 L 692.453125 26.296875 L 688.65625 26.296875 L 688.65625 36.734375 L 685.988281 36.734375 L 685.988281 26.296875 L 682.179688 26.296875 L 682.179688 24.050781 L 692.453125 24.050781 "/></g><g clip-rule="nonzero" clip-path="url(#c1732e4bc1)"><path style=" stroke:none;fill-rule:nonzero;fill:#737373;fill-opacity:1;" d="M 702.414062 24.050781 L 706.230469 24.050781 L 706.230469 36.734375 L 703.757812 36.734375 L 703.757812 28.152344 C 703.757812 27.90625 703.761719 27.5625 703.769531 27.117188 C 703.773438 26.671875 703.777344 26.328125 703.777344 26.089844 L 701.375 36.734375 L 698.796875 36.734375 L 696.410156 26.089844 C 696.410156 26.328125 696.414062 26.671875 696.417969 27.117188 C 696.425781 27.5625 696.429688 27.90625 696.429688 28.152344 L 696.429688 36.734375 L 693.957031 36.734375 L 693.957031 24.050781 L 697.816406 24.050781 L 700.125 34.023438 L 702.414062 24.050781 "/></g><g style="fill:#000000;fill-opacity:1;"><g transform="translate(1.901493, 153.955206)"><path style="stroke:none" d="M 74.5625 0 L 7.703125 0 L 7.703125 -97.921875 L 74.5625 -97.921875 L 74.5625 -77.375 L 30.671875 -77.375 L 30.671875 -59.15625 L 70.328125 -59.15625 L 70.328125 -38.75 L 30.671875 -38.75 L 30.671875 -20.53125 L 74.5625 -20.53125 Z M 74.5625 0 "/></g></g><g style="fill:#000000;fill-opacity:1;"><g transform="translate(81.967425, 153.955206)"><path style="stroke:none" d="M 36.0625 1.546875 C 29.90625 1.546875 24.429688 -0.078125 19.640625 -3.328125 C 14.847656 -6.585938 11.101562 -11.0625 8.40625 -16.75 C 5.707031 -22.4375 4.359375 -29 4.359375 -36.4375 C 4.359375 -43.882812 5.707031 -50.453125 8.40625 -56.140625 C 11.101562 -61.828125 14.847656 -66.273438 19.640625 -69.484375 C 24.429688 -72.691406 29.90625 -74.296875 36.0625 -74.296875 C 39.90625 -74.296875 43.367188 -73.65625 46.453125 -72.375 C 49.535156 -71.09375 52.273438 -68.613281 54.671875 -64.9375 L 54.671875 -97.921875 L 76.234375 -97.921875 L 76.234375 0 L 54.671875 0 L 54.671875 -7.828125 C 52.273438 -4.148438 49.535156 -1.664062 46.453125 -0.375 C 43.367188 0.90625 39.90625 1.546875 36.0625 1.546875 Z M 42.09375 -16.8125 C 46.882812 -16.8125 50.734375 -18.609375 53.640625 -22.203125 C 56.546875 -25.796875 58 -30.539062 58 -36.4375 C 58 -42.257812 56.546875 -46.96875 53.640625 -50.5625 C 50.734375 -54.15625 46.882812 -55.953125 42.09375 -55.953125 C 37.300781 -55.953125 33.445312 -54.132812 30.53125 -50.5 C 27.625 -46.863281 26.171875 -42.175781 26.171875 -36.4375 C 26.171875 -30.707031 27.625 -26.003906 30.53125 -22.328125 C 33.445312 -18.648438 37.300781 -16.8125 42.09375 -16.8125 Z M 42.09375 -16.8125 "/></g></g><g style="fill:#000000;fill-opacity:1;"><g transform="translate(165.241097, 153.955206)"><path style="stroke:none" d="M 41.328125 26.6875 C 37.554688 26.6875 33.8125 26.34375 30.09375 25.65625 C 26.375 24.976562 22.882812 23.757812 19.625 22 C 16.375 20.25 13.613281 17.789062 11.34375 14.625 C 9.082031 11.457031 7.566406 7.4375 6.796875 2.5625 L 28.359375 2.5625 C 29.554688 5.644531 31.203125 7.765625 33.296875 8.921875 C 35.390625 10.078125 38.019531 10.65625 41.1875 10.65625 C 46.070312 10.65625 49.5625 9.519531 51.65625 7.25 C 53.75 4.976562 54.796875 2.347656 54.796875 -0.640625 L 54.796875 -10.390625 C 52.398438 -6.710938 49.660156 -4.234375 46.578125 -2.953125 C 43.503906 -1.671875 40.039062 -1.03125 36.1875 -1.03125 C 30.03125 -1.03125 24.554688 -2.632812 19.765625 -5.84375 C 14.972656 -9.050781 11.226562 -13.410156 8.53125 -18.921875 C 5.832031 -24.441406 4.484375 -30.664062 4.484375 -37.59375 C 4.484375 -44.613281 5.832031 -50.878906 8.53125 -56.390625 C 11.226562 -61.910156 14.972656 -66.273438 19.765625 -69.484375 C 24.554688 -72.691406 30.03125 -74.296875 36.1875 -74.296875 C 40.039062 -74.296875 43.503906 -73.65625 46.578125 -72.375 C 49.660156 -71.09375 52.398438 -68.613281 54.796875 -64.9375 L 54.796875 -72.765625 L 76.359375 -72.765625 L 76.359375 -6.15625 C 76.359375 0.34375 75.4375 5.726562 73.59375 10 C 71.757812 14.28125 69.238281 17.640625 66.03125 20.078125 C 62.820312 22.515625 59.097656 24.222656 54.859375 25.203125 C 50.628906 26.191406 46.117188 26.6875 41.328125 26.6875 Z M 42.21875 -19.375 C 47.007812 -19.375 50.859375 -21.101562 53.765625 -24.5625 C 56.671875 -28.03125 58.125 -32.375 58.125 -37.59375 C 58.125 -42.90625 56.671875 -47.289062 53.765625 -50.75 C 50.859375 -54.21875 47.007812 -55.953125 42.21875 -55.953125 C 37.425781 -55.953125 33.578125 -54.175781 30.671875 -50.625 C 27.765625 -47.070312 26.3125 -42.726562 26.3125 -37.59375 C 26.3125 -32.550781 27.742188 -28.253906 30.609375 -24.703125 C 33.472656 -21.148438 37.34375 -19.375 42.21875 -19.375 Z M 42.21875 -19.375 "/></g></g><g style="fill:#000000;fill-opacity:1;"><g transform="translate(248.643087, 153.955206)"><path style="stroke:none" d="M 42.09375 1.546875 C 34.394531 1.546875 27.695312 -0.078125 22 -3.328125 C 16.3125 -6.585938 11.90625 -11.019531 8.78125 -16.625 C 5.664062 -22.226562 4.109375 -28.617188 4.109375 -35.796875 C 4.109375 -40.421875 4.8125 -45 6.21875 -49.53125 C 7.632812 -54.070312 9.859375 -58.222656 12.890625 -61.984375 C 15.929688 -65.742188 19.800781 -68.734375 24.5 -70.953125 C 29.207031 -73.179688 34.859375 -74.296875 41.453125 -74.296875 C 46.242188 -74.296875 50.882812 -73.585938 55.375 -72.171875 C 59.863281 -70.765625 63.882812 -68.519531 67.4375 -65.4375 C 70.988281 -62.363281 73.8125 -58.363281 75.90625 -53.4375 C 78 -48.519531 79.046875 -42.554688 79.046875 -35.546875 L 79.046875 -31.828125 L 26.6875 -31.828125 C 27.289062 -27.890625 28.53125 -24.765625 30.40625 -22.453125 C 31.945312 -20.578125 33.804688 -19.1875 35.984375 -18.28125 C 38.171875 -17.382812 40.59375 -16.9375 43.25 -16.9375 C 46.5 -16.9375 49.253906 -17.75 51.515625 -19.375 C 53.785156 -21 55.347656 -22.925781 56.203125 -25.15625 L 77.890625 -25.15625 C 76.523438 -20.363281 74.34375 -15.9375 71.34375 -11.875 C 68.351562 -7.8125 64.441406 -4.554688 59.609375 -2.109375 C 54.773438 0.328125 48.9375 1.546875 42.09375 1.546875 Z M 27.328125 -47.09375 L 57.234375 -47.09375 C 57.066406 -47.945312 56.742188 -48.972656 56.265625 -50.171875 C 55.796875 -51.367188 54.960938 -52.523438 53.765625 -53.640625 C 52.222656 -55.179688 50.46875 -56.269531 48.5 -56.90625 C 46.539062 -57.550781 44.445312 -57.875 42.21875 -57.875 C 40.082031 -57.875 38.007812 -57.550781 36 -56.90625 C 33.988281 -56.269531 32.210938 -55.179688 30.671875 -53.640625 C 29.472656 -52.441406 28.660156 -51.265625 28.234375 -50.109375 C 27.804688 -48.953125 27.503906 -47.945312 27.328125 -47.09375 Z M 27.328125 -47.09375 "/></g></g><g style="fill:#000000;fill-opacity:1;"><g transform="translate(331.788469, 153.955206)"><path style="stroke:none" d="M 53 2.1875 C 44.613281 2.1875 37.335938 0.816406 31.171875 -1.921875 C 25.015625 -4.660156 19.945312 -8.40625 15.96875 -13.15625 C 12 -17.90625 9.03125 -23.359375 7.0625 -29.515625 C 5.09375 -35.671875 4.109375 -42.171875 4.109375 -49.015625 C 4.109375 -55.859375 5.09375 -62.335938 7.0625 -68.453125 C 9.03125 -74.578125 12 -80.015625 15.96875 -84.765625 C 19.945312 -89.515625 25.015625 -93.234375 31.171875 -95.921875 C 37.335938 -98.617188 44.613281 -99.96875 53 -99.96875 C 61.632812 -99.96875 69.007812 -98.488281 75.125 -95.53125 C 81.25 -92.582031 86.109375 -88.476562 89.703125 -83.21875 C 93.296875 -77.957031 95.519531 -71.820312 96.375 -64.8125 L 71.21875 -64.8125 C 70.539062 -69.851562 68.46875 -73.550781 65 -75.90625 C 61.53125 -78.257812 57.359375 -79.4375 52.484375 -79.4375 C 44.703125 -79.4375 38.734375 -76.675781 34.578125 -71.15625 C 30.429688 -65.632812 28.359375 -58.253906 28.359375 -49.015625 C 28.359375 -39.691406 30.429688 -32.25 34.578125 -26.6875 C 38.734375 -21.125 44.703125 -18.34375 52.484375 -18.34375 C 57.359375 -18.34375 61.503906 -19.539062 64.921875 -21.9375 C 68.347656 -24.332031 70.445312 -28.097656 71.21875 -33.234375 L 96.375 -33.234375 C 95.519531 -26.222656 93.296875 -20.039062 89.703125 -14.6875 C 86.109375 -9.34375 81.25 -5.191406 75.125 -2.234375 C 69.007812 0.710938 61.632812 2.1875 53 2.1875 Z M 53 2.1875 "/></g></g><g style="fill:#000000;fill-opacity:1;"><g transform="translate(431.742556, 153.955206)"><path style="stroke:none" d="M 28.609375 0 L 7.0625 0 L 7.0625 -72.765625 L 28.609375 -72.765625 L 28.609375 -64.9375 C 31.097656 -68.613281 33.859375 -71.09375 36.890625 -72.375 C 39.929688 -73.65625 43.375 -74.296875 47.21875 -74.296875 L 50.4375 -74.296875 L 50.4375 -53.765625 L 46.328125 -53.765625 C 43.328125 -53.765625 40.84375 -53.421875 38.875 -52.734375 C 36.914062 -52.054688 35.289062 -51.117188 34 -49.921875 C 32.125 -48.117188 30.753906 -45.695312 29.890625 -42.65625 C 29.035156 -39.625 28.609375 -35.628906 28.609375 -30.671875 Z M 28.609375 0 "/></g></g><g style="fill:#000000;fill-opacity:1;"><g transform="translate(484.34998, 153.955206)"><path style="stroke:none" d="M 28.109375 1.546875 C 23.742188 1.546875 19.765625 0.734375 16.171875 -0.890625 C 12.578125 -2.523438 9.6875 -4.96875 7.5 -8.21875 C 5.320312 -11.46875 4.234375 -15.53125 4.234375 -20.40625 C 4.234375 -24.769531 5.085938 -28.363281 6.796875 -31.1875 C 8.515625 -34.007812 10.695312 -36.273438 13.34375 -37.984375 C 15.914062 -39.691406 18.738281 -40.953125 21.8125 -41.765625 C 24.894531 -42.578125 27.804688 -43.242188 30.546875 -43.765625 L 49.40625 -47.09375 C 49.144531 -50.769531 48.160156 -53.59375 46.453125 -55.5625 C 44.828125 -57.269531 42.390625 -58.125 39.140625 -58.125 C 36.660156 -58.125 34.367188 -57.289062 32.265625 -55.625 C 30.171875 -53.957031 28.867188 -51.585938 28.359375 -48.515625 L 6.9375 -48.515625 C 7.875 -54.585938 9.96875 -59.523438 13.21875 -63.328125 C 16.46875 -67.140625 20.398438 -69.921875 25.015625 -71.671875 C 29.640625 -73.421875 34.390625 -74.296875 39.265625 -74.296875 C 43.546875 -74.296875 47.648438 -73.71875 51.578125 -72.5625 C 55.515625 -71.414062 58.941406 -69.597656 61.859375 -67.109375 C 64.847656 -64.546875 66.960938 -61.59375 68.203125 -58.25 C 69.441406 -54.914062 70.191406 -51.257812 70.453125 -47.28125 C 70.710938 -43.3125 70.84375 -39.054688 70.84375 -34.515625 L 70.84375 0 L 49.28125 0 L 49.28125 -8.859375 C 48.082031 -6.035156 46.367188 -3.851562 44.140625 -2.3125 C 42.003906 -0.851562 39.546875 0.148438 36.765625 0.703125 C 33.984375 1.265625 31.097656 1.546875 28.109375 1.546875 Z M 34.390625 -14.75 C 36.953125 -14.75 39.5625 -15.347656 42.21875 -16.546875 C 45.21875 -17.921875 47.207031 -19.828125 48.1875 -22.265625 C 49.164062 -24.703125 49.703125 -27.890625 49.796875 -31.828125 L 36.578125 -29.265625 C 34.179688 -28.828125 32.335938 -28.351562 31.046875 -27.84375 C 29.765625 -27.332031 28.65625 -26.648438 27.71875 -25.796875 C 27.125 -25.191406 26.65625 -24.523438 26.3125 -23.796875 C 25.96875 -23.078125 25.796875 -22.203125 25.796875 -21.171875 C 25.796875 -18.859375 26.648438 -17.207031 28.359375 -16.21875 C 30.066406 -15.238281 32.078125 -14.75 34.390625 -14.75 Z M 34.390625 -14.75 "/></g></g><g style="fill:#000000;fill-opacity:1;"><g transform="translate(561.464721, 153.955206)"><path style="stroke:none" d="M 34.90625 0 L 13.09375 0 L 13.09375 -56.078125 L 2.6875 -56.078125 L 2.6875 -72.765625 L 13.09375 -72.765625 L 13.09375 -79.8125 C 13.09375 -85.550781 14.890625 -90.003906 18.484375 -93.171875 C 22.078125 -96.335938 27.207031 -97.921875 33.875 -97.921875 L 45.8125 -97.921875 L 45.8125 -81.359375 L 39.140625 -81.359375 C 38.285156 -81.359375 37.363281 -81.054688 36.375 -80.453125 C 35.394531 -79.859375 34.90625 -78.578125 34.90625 -76.609375 L 34.90625 -72.765625 L 45.8125 -72.765625 L 45.8125 -56.078125 L 34.90625 -56.078125 Z M 34.90625 0 "/></g></g><g style="fill:#000000;fill-opacity:1;"><g transform="translate(609.966198, 153.955206)"><path style="stroke:none" d="M 46.71875 0 L 29.515625 0 C 24.210938 0 20.082031 -1.257812 17.125 -3.78125 C 14.175781 -6.3125 12.703125 -9.882812 12.703125 -14.5 L 12.703125 -55.953125 L 2.6875 -55.953125 L 2.6875 -72.765625 L 12.703125 -72.765625 L 12.703125 -97.921875 L 34.265625 -97.921875 L 34.265625 -72.765625 L 46.84375 -72.765625 L 46.84375 -55.953125 L 34.265625 -55.953125 L 34.265625 -21.8125 C 34.265625 -20.789062 34.519531 -19.804688 35.03125 -18.859375 C 35.539062 -17.921875 36.738281 -17.453125 38.625 -17.453125 L 46.71875 -17.453125 Z M 46.71875 0 "/></g></g><g style="fill:#000000;fill-opacity:1;"><g transform="translate(673.74872, 139.911816)"><path style="stroke:none" d="M 0 -2.59375 L 0 -0.203125 L -14.90625 -5.5625 L -14.90625 -8.125 L 0 -13.5 L 0 -11.109375 L -3.359375 -9.96875 L -3.359375 -3.75 Z M -12.46875 -6.859375 L -5.390625 -4.453125 L -5.390625 -9.265625 Z M -12.46875 -6.859375 "/></g></g><g style="fill:#000000;fill-opacity:1;"><g transform="translate(673.74872, 126.210909)"><path style="stroke:none" d="M 0 -3.734375 L 0 -1.421875 L -14.90625 -1.421875 L -14.90625 -3.734375 Z M 0 -3.734375 "/></g></g><g style="fill:#000000;fill-opacity:1;"><g transform="translate(673.74872, 121.019393)"><path style="stroke:none" d=""/></g></g><g style="fill:#000000;fill-opacity:1;"><g transform="translate(673.74872, 115.671752)"><path style="stroke:none" d="M 0 -2.59375 L 0 -0.203125 L -14.90625 -5.5625 L -14.90625 -8.125 L 0 -13.5 L 0 -11.109375 L -3.359375 -9.96875 L -3.359375 -3.75 Z M -12.46875 -6.859375 L -5.390625 -4.453125 L -5.390625 -9.265625 Z M -12.46875 -6.859375 "/></g></g><g style="fill:#000000;fill-opacity:1;"><g transform="translate(673.74872, 101.970845)"><path style="stroke:none" d="M -11.09375 -6.78125 C -11.09375 -7.738281 -10.851562 -8.578125 -10.375 -9.296875 C -9.894531 -10.023438 -9.226562 -10.585938 -8.375 -10.984375 C -7.53125 -11.378906 -6.554688 -11.578125 -5.453125 -11.578125 C -4.347656 -11.578125 -3.367188 -11.378906 -2.515625 -10.984375 C -1.660156 -10.585938 -0.988281 -10.023438 -0.5 -9.296875 C -0.0195312 -8.578125 0.21875 -7.738281 0.21875 -6.78125 C 0.21875 -6.101562 0.0976562 -5.503906 -0.140625 -4.984375 C -0.390625 -4.460938 -0.851562 -3.953125 -1.53125 -3.453125 L 4.03125 -3.453125 L 4.03125 -1.3125 L -10.875 -1.3125 L -10.875 -3.453125 L -9.359375 -3.453125 C -10.003906 -3.953125 -10.453125 -4.457031 -10.703125 -4.96875 C -10.960938 -5.488281 -11.09375 -6.09375 -11.09375 -6.78125 Z M -9.21875 -6.390625 C -9.21875 -5.773438 -9.054688 -5.234375 -8.734375 -4.765625 C -8.421875 -4.296875 -7.976562 -3.925781 -7.40625 -3.65625 C -6.84375 -3.394531 -6.191406 -3.265625 -5.453125 -3.265625 C -4.710938 -3.265625 -4.054688 -3.394531 -3.484375 -3.65625 C -2.921875 -3.925781 -2.472656 -4.296875 -2.140625 -4.765625 C -1.816406 -5.234375 -1.65625 -5.773438 -1.65625 -6.390625 C -1.65625 -7.015625 -1.816406 -7.550781 -2.140625 -8 C -2.472656 -8.457031 -2.925781 -8.8125 -3.5 -9.0625 C -4.070312 -9.3125 -4.722656 -9.4375 -5.453125 -9.4375 C -6.179688 -9.4375 -6.828125 -9.3125 -7.390625 -9.0625 C -7.960938 -8.8125 -8.410156 -8.457031 -8.734375 -8 C -9.054688 -7.550781 -9.21875 -7.015625 -9.21875 -6.390625 Z M -9.21875 -6.390625 "/></g></g><g style="fill:#000000;fill-opacity:1;"><g transform="translate(673.74872, 89.499511)"><path style="stroke:none" d="M -11.09375 -6.78125 C -11.09375 -7.738281 -10.851562 -8.578125 -10.375 -9.296875 C -9.894531 -10.023438 -9.226562 -10.585938 -8.375 -10.984375 C -7.53125 -11.378906 -6.554688 -11.578125 -5.453125 -11.578125 C -4.347656 -11.578125 -3.367188 -11.378906 -2.515625 -10.984375 C -1.660156 -10.585938 -0.988281 -10.023438 -0.5 -9.296875 C -0.0195312 -8.578125 0.21875 -7.738281 0.21875 -6.78125 C 0.21875 -6.101562 0.0976562 -5.503906 -0.140625 -4.984375 C -0.390625 -4.460938 -0.851562 -3.953125 -1.53125 -3.453125 L 4.03125 -3.453125 L 4.03125 -1.3125 L -10.875 -1.3125 L -10.875 -3.453125 L -9.359375 -3.453125 C -10.003906 -3.953125 -10.453125 -4.457031 -10.703125 -4.96875 C -10.960938 -5.488281 -11.09375 -6.09375 -11.09375 -6.78125 Z M -9.21875 -6.390625 C -9.21875 -5.773438 -9.054688 -5.234375 -8.734375 -4.765625 C -8.421875 -4.296875 -7.976562 -3.925781 -7.40625 -3.65625 C -6.84375 -3.394531 -6.191406 -3.265625 -5.453125 -3.265625 C -4.710938 -3.265625 -4.054688 -3.394531 -3.484375 -3.65625 C -2.921875 -3.925781 -2.472656 -4.296875 -2.140625 -4.765625 C -1.816406 -5.234375 -1.65625 -5.773438 -1.65625 -6.390625 C -1.65625 -7.015625 -1.816406 -7.550781 -2.140625 -8 C -2.472656 -8.457031 -2.925781 -8.8125 -3.5 -9.0625 C -4.070312 -9.3125 -4.722656 -9.4375 -5.453125 -9.4375 C -6.179688 -9.4375 -6.828125 -9.3125 -7.390625 -9.0625 C -7.960938 -8.8125 -8.410156 -8.457031 -8.734375 -8 C -9.054688 -7.550781 -9.21875 -7.015625 -9.21875 -6.390625 Z M -9.21875 -6.390625 "/></g></g><g style="fill:#000000;fill-opacity:1;"><g transform="translate(673.74872, 77.028177)"><path style="stroke:none" d="M 0.21875 -5.84375 C 0.21875 -4.96875 0.078125 -4.164062 -0.203125 -3.4375 C -0.492188 -2.71875 -0.921875 -2.125 -1.484375 -1.65625 C -2.046875 -1.1875 -2.742188 -0.890625 -3.578125 -0.765625 L -3.578125 -2.9375 C -2.953125 -3.09375 -2.457031 -3.410156 -2.09375 -3.890625 C -1.738281 -4.367188 -1.5625 -5.019531 -1.5625 -5.84375 C -1.5625 -6.488281 -1.6875 -7.015625 -1.9375 -7.421875 C -2.1875 -7.835938 -2.550781 -8.046875 -3.03125 -8.046875 C -3.414062 -8.046875 -3.71875 -7.910156 -3.9375 -7.640625 C -4.15625 -7.378906 -4.320312 -7.035156 -4.4375 -6.609375 C -4.5625 -6.191406 -4.671875 -5.734375 -4.765625 -5.234375 C -4.859375 -4.765625 -4.96875 -4.289062 -5.09375 -3.8125 C -5.21875 -3.34375 -5.382812 -2.910156 -5.59375 -2.515625 C -5.8125 -2.117188 -6.101562 -1.800781 -6.46875 -1.5625 C -6.84375 -1.332031 -7.320312 -1.21875 -7.90625 -1.21875 C -8.625 -1.21875 -9.21875 -1.398438 -9.6875 -1.765625 C -10.15625 -2.140625 -10.503906 -2.632812 -10.734375 -3.25 C -10.972656 -3.875 -11.09375 -4.554688 -11.09375 -5.296875 C -11.09375 -6.515625 -10.773438 -7.535156 -10.140625 -8.359375 C -9.515625 -9.179688 -8.640625 -9.691406 -7.515625 -9.890625 L -7.515625 -7.875 C -8.160156 -7.707031 -8.625 -7.390625 -8.90625 -6.921875 C -9.195312 -6.460938 -9.34375 -5.921875 -9.34375 -5.296875 C -9.34375 -4.671875 -9.222656 -4.179688 -8.984375 -3.828125 C -8.753906 -3.472656 -8.4375 -3.296875 -8.03125 -3.296875 C -7.6875 -3.296875 -7.414062 -3.421875 -7.21875 -3.671875 C -7.03125 -3.929688 -6.882812 -4.265625 -6.78125 -4.671875 C -6.675781 -5.078125 -6.578125 -5.515625 -6.484375 -5.984375 C -6.390625 -6.460938 -6.28125 -6.945312 -6.15625 -7.4375 C -6.039062 -7.9375 -5.867188 -8.390625 -5.640625 -8.796875 C -5.410156 -9.210938 -5.101562 -9.546875 -4.71875 -9.796875 C -4.332031 -10.046875 -3.828125 -10.171875 -3.203125 -10.171875 C -2.171875 -10.171875 -1.34375 -9.789062 -0.71875 -9.03125 C -0.09375 -8.269531 0.21875 -7.207031 0.21875 -5.84375 Z M 0.21875 -5.84375 "/></g></g><g style="fill:#000000;fill-opacity:1;"><g transform="translate(673.74872, 65.951678)"><path style="stroke:none" d=""/></g></g></g></svg>