<svg xmlns="http://www.w3.org/2000/svg" xmlns:xlink="http://www.w3.org/1999/xlink" width="567" zoomAndPan="magnify" viewBox="0 0 425.25 283.500005" height="378" preserveAspectRatio="xMidYMid meet" version="1.2"><defs><clipPath id="24e8ca68ae"><path d="M 305.699219 78.667969 L 417.726562 78.667969 L 417.726562 190.695312 L 305.699219 190.695312 Z M 305.699219 78.667969 "/></clipPath><clipPath id="fab3eb42fd"><path d="M 361.710938 78.667969 C 330.777344 78.667969 305.699219 103.746094 305.699219 134.683594 C 305.699219 165.617188 330.777344 190.695312 361.710938 190.695312 C 392.648438 190.695312 417.726562 165.617188 417.726562 134.683594 C 417.726562 103.746094 392.648438 78.667969 361.710938 78.667969 Z M 361.710938 78.667969 "/></clipPath><clipPath id="2601866899"><path d="M 403.390625 87.273438 L 409.472656 87.273438 L 409.472656 94.761719 L 403.390625 94.761719 Z M 403.390625 87.273438 "/></clipPath><clipPath id="bb14c09086"><path d="M 410.324219 87.273438 L 417.585938 87.273438 L 417.585938 94.761719 L 410.324219 94.761719 Z M 410.324219 87.273438 "/></clipPath></defs><g id="22b3817ac3"><g clip-rule="nonzero" clip-path="url(#24e8ca68ae)"><g clip-rule="nonzero" clip-path="url(#fab3eb42fd)"><path style=" stroke:none;fill-rule:nonzero;fill:#fad02c;fill-opacity:1;" d="M 305.699219 78.667969 L 417.726562 78.667969 L 417.726562 190.695312 L 305.699219 190.695312 Z M 305.699219 78.667969 "/></g></g><g clip-rule="nonzero" clip-path="url(#2601866899)"><path style=" stroke:none;fill-rule:nonzero;fill:#737373;fill-opacity:1;" d="M 409.457031 87.273438 L 409.457031 88.601562 L 407.214844 88.601562 L 407.214844 94.761719 L 405.640625 94.761719 L 405.640625 88.601562 L 403.390625 88.601562 L 403.390625 87.273438 L 409.457031 87.273438 "/></g><g clip-rule="nonzero" clip-path="url(#bb14c09086)"><path style=" stroke:none;fill-rule:nonzero;fill:#737373;fill-opacity:1;" d="M 415.335938 87.273438 L 417.585938 87.273438 L 417.585938 94.761719 L 416.128906 94.761719 L 416.128906 89.695312 C 416.128906 89.550781 416.132812 89.347656 416.136719 89.085938 C 416.136719 88.824219 416.140625 88.621094 416.140625 88.476562 L 414.722656 94.761719 L 413.199219 94.761719 L 411.792969 88.476562 C 411.792969 88.621094 411.792969 88.824219 411.796875 89.085938 C 411.800781 89.347656 411.800781 89.550781 411.800781 89.695312 L 411.800781 94.761719 L 410.34375 94.761719 L 410.34375 87.273438 L 412.621094 87.273438 L 413.984375 93.160156 L 415.335938 87.273438 "/></g><g style="fill:#000000;fill-opacity:1;"><g transform="translate(6.793151, 158.957737)"><path style="stroke:none" d="M 43.265625 0 L 4.46875 0 L 4.46875 -56.8125 L 43.265625 -56.8125 L 43.265625 -44.90625 L 17.796875 -44.90625 L 17.796875 -34.328125 L 40.8125 -34.328125 L 40.8125 -22.484375 L 17.796875 -22.484375 L 17.796875 -11.921875 L 43.265625 -11.921875 Z M 43.265625 0 "/></g></g><g style="fill:#000000;fill-opacity:1;"><g transform="translate(53.252025, 158.957737)"><path style="stroke:none" d="M 20.921875 0.890625 C 17.347656 0.890625 14.171875 -0.0507812 11.390625 -1.9375 C 8.609375 -3.820312 6.4375 -6.414062 4.875 -9.71875 C 3.3125 -13.019531 2.53125 -16.832031 2.53125 -21.15625 C 2.53125 -25.46875 3.3125 -29.273438 4.875 -32.578125 C 6.4375 -35.878906 8.609375 -38.460938 11.390625 -40.328125 C 14.171875 -42.191406 17.347656 -43.125 20.921875 -43.125 C 23.160156 -43.125 25.171875 -42.75 26.953125 -42 C 28.742188 -41.257812 30.332031 -39.820312 31.71875 -37.6875 L 31.71875 -56.8125 L 44.234375 -56.8125 L 44.234375 0 L 31.71875 0 L 31.71875 -4.546875 C 30.332031 -2.410156 28.742188 -0.96875 26.953125 -0.21875 C 25.171875 0.519531 23.160156 0.890625 20.921875 0.890625 Z M 24.421875 -9.75 C 27.203125 -9.75 29.4375 -10.789062 31.125 -12.875 C 32.8125 -14.96875 33.65625 -17.726562 33.65625 -21.15625 C 33.65625 -24.53125 32.8125 -27.257812 31.125 -29.34375 C 29.4375 -31.425781 27.203125 -32.46875 24.421875 -32.46875 C 21.640625 -32.46875 19.40625 -31.410156 17.71875 -29.296875 C 16.03125 -27.191406 15.1875 -24.476562 15.1875 -21.15625 C 15.1875 -17.820312 16.03125 -15.085938 17.71875 -12.953125 C 19.40625 -10.816406 21.640625 -9.75 24.421875 -9.75 Z M 24.421875 -9.75 "/></g></g><g style="fill:#000000;fill-opacity:1;"><g transform="translate(101.572215, 158.957737)"><path style="stroke:none" d="M 23.984375 15.484375 C 21.796875 15.484375 19.617188 15.285156 17.453125 14.890625 C 15.296875 14.492188 13.273438 13.785156 11.390625 12.765625 C 9.503906 11.753906 7.898438 10.328125 6.578125 8.484375 C 5.265625 6.648438 4.390625 4.316406 3.953125 1.484375 L 16.453125 1.484375 C 17.148438 3.273438 18.109375 4.503906 19.328125 5.171875 C 20.546875 5.847656 22.070312 6.1875 23.90625 6.1875 C 26.738281 6.1875 28.757812 5.523438 29.96875 4.203125 C 31.1875 2.890625 31.796875 1.363281 31.796875 -0.375 L 31.796875 -6.03125 C 30.410156 -3.894531 28.820312 -2.453125 27.03125 -1.703125 C 25.238281 -0.960938 23.226562 -0.59375 21 -0.59375 C 17.425781 -0.59375 14.25 -1.523438 11.46875 -3.390625 C 8.6875 -5.253906 6.515625 -7.785156 4.953125 -10.984375 C 3.390625 -14.179688 2.609375 -17.789062 2.609375 -21.8125 C 2.609375 -25.882812 3.390625 -29.519531 4.953125 -32.71875 C 6.515625 -35.925781 8.6875 -38.460938 11.46875 -40.328125 C 14.25 -42.191406 17.425781 -43.125 21 -43.125 C 23.226562 -43.125 25.238281 -42.75 27.03125 -42 C 28.820312 -41.257812 30.410156 -39.820312 31.796875 -37.6875 L 31.796875 -42.21875 L 44.3125 -42.21875 L 44.3125 -3.578125 C 44.3125 0.191406 43.773438 3.316406 42.703125 5.796875 C 41.640625 8.285156 40.175781 10.238281 38.3125 11.65625 C 36.445312 13.070312 34.285156 14.0625 31.828125 14.625 C 29.378906 15.195312 26.765625 15.484375 23.984375 15.484375 Z M 24.5 -11.25 C 27.28125 -11.25 29.515625 -12.253906 31.203125 -14.265625 C 32.890625 -16.273438 33.734375 -18.789062 33.734375 -21.8125 C 33.734375 -24.894531 32.890625 -27.441406 31.203125 -29.453125 C 29.515625 -31.460938 27.28125 -32.46875 24.5 -32.46875 C 21.71875 -32.46875 19.484375 -31.4375 17.796875 -29.375 C 16.109375 -27.3125 15.265625 -24.789062 15.265625 -21.8125 C 15.265625 -18.882812 16.09375 -16.390625 17.75 -14.328125 C 19.414062 -12.273438 21.664062 -11.25 24.5 -11.25 Z M 24.5 -11.25 "/></g></g><g style="fill:#000000;fill-opacity:1;"><g transform="translate(149.966862, 158.957737)"><path style="stroke:none" d="M 24.421875 0.890625 C 19.953125 0.890625 16.066406 -0.0507812 12.765625 -1.9375 C 9.460938 -3.820312 6.90625 -6.390625 5.09375 -9.640625 C 3.289062 -12.890625 2.390625 -16.601562 2.390625 -20.78125 C 2.390625 -23.457031 2.796875 -26.109375 3.609375 -28.734375 C 4.429688 -31.367188 5.722656 -33.78125 7.484375 -35.96875 C 9.242188 -38.15625 11.488281 -39.894531 14.21875 -41.1875 C 16.945312 -42.476562 20.222656 -43.125 24.046875 -43.125 C 26.828125 -43.125 29.519531 -42.710938 32.125 -41.890625 C 34.738281 -41.066406 37.070312 -39.757812 39.125 -37.96875 C 41.1875 -36.1875 42.828125 -33.867188 44.046875 -31.015625 C 45.265625 -28.160156 45.875 -24.695312 45.875 -20.625 L 45.875 -18.46875 L 15.484375 -18.46875 C 15.835938 -16.1875 16.5625 -14.375 17.65625 -13.03125 C 18.539062 -11.9375 19.613281 -11.128906 20.875 -10.609375 C 22.144531 -10.085938 23.550781 -9.828125 25.09375 -9.828125 C 26.976562 -9.828125 28.578125 -10.296875 29.890625 -11.234375 C 31.210938 -12.179688 32.125 -13.300781 32.625 -14.59375 L 45.203125 -14.59375 C 44.410156 -11.8125 43.144531 -9.238281 41.40625 -6.875 C 39.664062 -4.519531 37.394531 -2.632812 34.59375 -1.21875 C 31.789062 0.1875 28.398438 0.890625 24.421875 0.890625 Z M 15.859375 -27.328125 L 33.21875 -27.328125 C 33.113281 -27.828125 32.925781 -28.421875 32.65625 -29.109375 C 32.382812 -29.804688 31.898438 -30.476562 31.203125 -31.125 C 30.304688 -32.019531 29.285156 -32.648438 28.140625 -33.015625 C 27.003906 -33.390625 25.789062 -33.578125 24.5 -33.578125 C 23.257812 -33.578125 22.054688 -33.390625 20.890625 -33.015625 C 19.722656 -32.648438 18.691406 -32.019531 17.796875 -31.125 C 17.097656 -30.425781 16.625 -29.742188 16.375 -29.078125 C 16.132812 -28.410156 15.960938 -27.828125 15.859375 -27.328125 Z M 15.859375 -27.328125 "/></g></g><g style="fill:#000000;fill-opacity:1;"><g transform="translate(198.21261, 158.957737)"><path style="stroke:none" d="M 30.75 1.265625 C 25.882812 1.265625 21.664062 0.472656 18.09375 -1.109375 C 14.519531 -2.703125 11.578125 -4.875 9.265625 -7.625 C 6.960938 -10.382812 5.238281 -13.550781 4.09375 -17.125 C 2.957031 -20.695312 2.390625 -24.472656 2.390625 -28.453125 C 2.390625 -32.421875 2.957031 -36.175781 4.09375 -39.71875 C 5.238281 -43.269531 6.960938 -46.421875 9.265625 -49.171875 C 11.578125 -51.929688 14.519531 -54.09375 18.09375 -55.65625 C 21.664062 -57.226562 25.882812 -58.015625 30.75 -58.015625 C 35.769531 -58.015625 40.050781 -57.15625 43.59375 -55.4375 C 47.144531 -53.726562 49.960938 -51.347656 52.046875 -48.296875 C 54.140625 -45.242188 55.429688 -41.679688 55.921875 -37.609375 L 41.328125 -37.609375 C 40.929688 -40.535156 39.726562 -42.679688 37.71875 -44.046875 C 35.707031 -45.410156 33.285156 -46.09375 30.453125 -46.09375 C 25.941406 -46.09375 22.476562 -44.488281 20.0625 -41.28125 C 17.65625 -38.082031 16.453125 -33.804688 16.453125 -28.453125 C 16.453125 -23.035156 17.65625 -18.710938 20.0625 -15.484375 C 22.476562 -12.265625 25.941406 -10.65625 30.453125 -10.65625 C 33.285156 -10.65625 35.691406 -11.347656 37.671875 -12.734375 C 39.660156 -14.117188 40.878906 -16.300781 41.328125 -19.28125 L 55.921875 -19.28125 C 55.429688 -15.21875 54.140625 -11.632812 52.046875 -8.53125 C 49.960938 -5.425781 47.144531 -3.015625 43.59375 -1.296875 C 40.050781 0.410156 35.769531 1.265625 30.75 1.265625 Z M 30.75 1.265625 "/></g></g><g style="fill:#000000;fill-opacity:1;"><g transform="translate(256.21174, 158.957737)"><path style="stroke:none" d="M 16.609375 0 L 4.09375 0 L 4.09375 -42.21875 L 16.609375 -42.21875 L 16.609375 -37.6875 C 18.046875 -39.820312 19.644531 -41.257812 21.40625 -42 C 23.164062 -42.75 25.164062 -43.125 27.40625 -43.125 L 29.265625 -43.125 L 29.265625 -31.203125 L 26.890625 -31.203125 C 25.148438 -31.203125 23.707031 -31.003906 22.5625 -30.609375 C 21.414062 -30.210938 20.472656 -29.664062 19.734375 -28.96875 C 18.640625 -27.925781 17.84375 -26.523438 17.34375 -24.765625 C 16.851562 -23.003906 16.609375 -20.679688 16.609375 -17.796875 Z M 16.609375 0 "/></g></g><g style="fill:#000000;fill-opacity:1;"><g transform="translate(286.737602, 158.957737)"><path style="stroke:none" d="M 16.3125 0.890625 C 13.78125 0.890625 11.46875 0.421875 9.375 -0.515625 C 7.289062 -1.460938 5.613281 -2.878906 4.34375 -4.765625 C 3.082031 -6.648438 2.453125 -9.007812 2.453125 -11.84375 C 2.453125 -14.375 2.945312 -16.457031 3.9375 -18.09375 C 4.9375 -19.726562 6.207031 -21.046875 7.75 -22.046875 C 9.238281 -23.035156 10.875 -23.765625 12.65625 -24.234375 C 14.445312 -24.710938 16.132812 -25.097656 17.71875 -25.390625 L 28.671875 -27.328125 C 28.523438 -29.460938 27.953125 -31.101562 26.953125 -32.25 C 26.015625 -33.238281 24.601562 -33.734375 22.71875 -33.734375 C 21.269531 -33.734375 19.9375 -33.25 18.71875 -32.28125 C 17.507812 -31.3125 16.753906 -29.9375 16.453125 -28.15625 L 4.015625 -28.15625 C 4.566406 -31.675781 5.785156 -34.539062 7.671875 -36.75 C 9.554688 -38.957031 11.835938 -40.570312 14.515625 -41.59375 C 17.203125 -42.613281 19.957031 -43.125 22.78125 -43.125 C 25.269531 -43.125 27.65625 -42.785156 29.9375 -42.109375 C 32.21875 -41.441406 34.203125 -40.390625 35.890625 -38.953125 C 37.628906 -37.460938 38.859375 -35.75 39.578125 -33.8125 C 40.296875 -31.875 40.726562 -29.75 40.875 -27.4375 C 41.03125 -25.132812 41.109375 -22.664062 41.109375 -20.03125 L 41.109375 0 L 28.59375 0 L 28.59375 -5.140625 C 27.894531 -3.503906 26.90625 -2.238281 25.625 -1.34375 C 24.375 -0.5 22.941406 0.0820312 21.328125 0.40625 C 19.722656 0.726562 18.050781 0.890625 16.3125 0.890625 Z M 19.953125 -8.5625 C 21.441406 -8.5625 22.957031 -8.910156 24.5 -9.609375 C 26.238281 -10.398438 27.390625 -11.503906 27.953125 -12.921875 C 28.523438 -14.335938 28.835938 -16.1875 28.890625 -18.46875 L 21.21875 -16.984375 C 19.832031 -16.734375 18.765625 -16.457031 18.015625 -16.15625 C 17.273438 -15.863281 16.628906 -15.46875 16.078125 -14.96875 C 15.734375 -14.625 15.460938 -14.238281 15.265625 -13.8125 C 15.066406 -13.394531 14.96875 -12.882812 14.96875 -12.28125 C 14.96875 -10.945312 15.460938 -9.992188 16.453125 -9.421875 C 17.453125 -8.847656 18.617188 -8.5625 19.953125 -8.5625 Z M 19.953125 -8.5625 "/></g></g><g style="fill:#000000;fill-opacity:1;"><g transform="translate(331.484025, 158.957737)"><path style="stroke:none" d="M 20.25 0 L 7.59375 0 L 7.59375 -32.546875 L 1.5625 -32.546875 L 1.5625 -42.21875 L 7.59375 -42.21875 L 7.59375 -46.3125 C 7.59375 -49.644531 8.632812 -52.226562 10.71875 -54.0625 C 12.800781 -55.894531 15.78125 -56.8125 19.65625 -56.8125 L 26.578125 -56.8125 L 26.578125 -47.21875 L 22.71875 -47.21875 C 22.21875 -47.21875 21.679688 -47.039062 21.109375 -46.6875 C 20.535156 -46.34375 20.25 -45.597656 20.25 -44.453125 L 20.25 -42.21875 L 26.578125 -42.21875 L 26.578125 -32.546875 L 20.25 -32.546875 Z M 20.25 0 "/></g></g><g style="fill:#000000;fill-opacity:1;"><g transform="translate(359.627381, 158.957737)"><path style="stroke:none" d="M 27.109375 0 L 17.125 0 C 14.050781 0 11.65625 -0.726562 9.9375 -2.1875 C 8.226562 -3.65625 7.375 -5.734375 7.375 -8.421875 L 7.375 -32.46875 L 1.5625 -32.46875 L 1.5625 -42.21875 L 7.375 -42.21875 L 7.375 -56.8125 L 19.890625 -56.8125 L 19.890625 -42.21875 L 27.1875 -42.21875 L 27.1875 -32.46875 L 19.890625 -32.46875 L 19.890625 -12.65625 C 19.890625 -12.0625 20.035156 -11.488281 20.328125 -10.9375 C 20.628906 -10.394531 21.328125 -10.125 22.421875 -10.125 L 27.109375 -10.125 Z M 27.109375 0 "/></g></g><g style="fill:#000000;fill-opacity:1;"><g transform="translate(398.498046, 155.566829)"><path style="stroke:none" d="M 0 -1.5 L 0 -0.109375 L -8.640625 -3.234375 L -8.640625 -4.71875 L 0 -7.828125 L 0 -6.453125 L -1.953125 -5.78125 L -1.953125 -2.171875 Z M -7.234375 -3.96875 L -3.125 -2.578125 L -3.125 -5.375 Z M -7.234375 -3.96875 "/></g></g><g style="fill:#000000;fill-opacity:1;"><g transform="translate(398.498046, 147.616773)"><path style="stroke:none" d="M 0 -2.15625 L 0 -0.828125 L -8.640625 -0.828125 L -8.640625 -2.15625 Z M 0 -2.15625 "/></g></g><g style="fill:#000000;fill-opacity:1;"><g transform="translate(398.498046, 144.604355)"><path style="stroke:none" d=""/></g></g><g style="fill:#000000;fill-opacity:1;"><g transform="translate(398.498046, 141.501346)"><path style="stroke:none" d="M 0 -1.5 L 0 -0.109375 L -8.640625 -3.234375 L -8.640625 -4.71875 L 0 -7.828125 L 0 -6.453125 L -1.953125 -5.78125 L -1.953125 -2.171875 Z M -7.234375 -3.96875 L -3.125 -2.578125 L -3.125 -5.375 Z M -7.234375 -3.96875 "/></g></g><g style="fill:#000000;fill-opacity:1;"><g transform="translate(398.498046, 133.551289)"><path style="stroke:none" d="M -6.4375 -3.9375 C -6.4375 -4.488281 -6.296875 -4.972656 -6.015625 -5.390625 C -5.734375 -5.816406 -5.347656 -6.144531 -4.859375 -6.375 C -4.367188 -6.601562 -3.800781 -6.71875 -3.15625 -6.71875 C -2.519531 -6.71875 -1.953125 -6.601562 -1.453125 -6.375 C -0.960938 -6.144531 -0.578125 -5.816406 -0.296875 -5.390625 C -0.015625 -4.972656 0.125 -4.488281 0.125 -3.9375 C 0.125 -3.539062 0.0546875 -3.191406 -0.078125 -2.890625 C -0.222656 -2.585938 -0.492188 -2.289062 -0.890625 -2 L 2.328125 -2 L 2.328125 -0.765625 L -6.3125 -0.765625 L -6.3125 -2 L -5.421875 -2 C -5.804688 -2.289062 -6.070312 -2.582031 -6.21875 -2.875 C -6.363281 -3.175781 -6.4375 -3.53125 -6.4375 -3.9375 Z M -5.34375 -3.703125 C -5.34375 -3.347656 -5.25 -3.035156 -5.0625 -2.765625 C -4.882812 -2.492188 -4.628906 -2.28125 -4.296875 -2.125 C -3.972656 -1.96875 -3.59375 -1.890625 -3.15625 -1.890625 C -2.726562 -1.890625 -2.347656 -1.96875 -2.015625 -2.125 C -1.691406 -2.28125 -1.4375 -2.492188 -1.25 -2.765625 C -1.0625 -3.035156 -0.96875 -3.347656 -0.96875 -3.703125 C -0.96875 -4.066406 -1.0625 -4.378906 -1.25 -4.640625 C -1.4375 -4.910156 -1.695312 -5.113281 -2.03125 -5.25 C -2.363281 -5.394531 -2.738281 -5.46875 -3.15625 -5.46875 C -3.582031 -5.46875 -3.957031 -5.394531 -4.28125 -5.25 C -4.613281 -5.113281 -4.875 -4.910156 -5.0625 -4.640625 C -5.25 -4.378906 -5.34375 -4.066406 -5.34375 -3.703125 Z M -5.34375 -3.703125 "/></g></g><g style="fill:#000000;fill-opacity:1;"><g transform="translate(398.498046, 126.314701)"><path style="stroke:none" d="M -6.4375 -3.9375 C -6.4375 -4.488281 -6.296875 -4.972656 -6.015625 -5.390625 C -5.734375 -5.816406 -5.347656 -6.144531 -4.859375 -6.375 C -4.367188 -6.601562 -3.800781 -6.71875 -3.15625 -6.71875 C -2.519531 -6.71875 -1.953125 -6.601562 -1.453125 -6.375 C -0.960938 -6.144531 -0.578125 -5.816406 -0.296875 -5.390625 C -0.015625 -4.972656 0.125 -4.488281 0.125 -3.9375 C 0.125 -3.539062 0.0546875 -3.191406 -0.078125 -2.890625 C -0.222656 -2.585938 -0.492188 -2.289062 -0.890625 -2 L 2.328125 -2 L 2.328125 -0.765625 L -6.3125 -0.765625 L -6.3125 -2 L -5.421875 -2 C -5.804688 -2.289062 -6.070312 -2.582031 -6.21875 -2.875 C -6.363281 -3.175781 -6.4375 -3.53125 -6.4375 -3.9375 Z M -5.34375 -3.703125 C -5.34375 -3.347656 -5.25 -3.035156 -5.0625 -2.765625 C -4.882812 -2.492188 -4.628906 -2.28125 -4.296875 -2.125 C -3.972656 -1.96875 -3.59375 -1.890625 -3.15625 -1.890625 C -2.726562 -1.890625 -2.347656 -1.96875 -2.015625 -2.125 C -1.691406 -2.28125 -1.4375 -2.492188 -1.25 -2.765625 C -1.0625 -3.035156 -0.96875 -3.347656 -0.96875 -3.703125 C -0.96875 -4.066406 -1.0625 -4.378906 -1.25 -4.640625 C -1.4375 -4.910156 -1.695312 -5.113281 -2.03125 -5.25 C -2.363281 -5.394531 -2.738281 -5.46875 -3.15625 -5.46875 C -3.582031 -5.46875 -3.957031 -5.394531 -4.28125 -5.25 C -4.613281 -5.113281 -4.875 -4.910156 -5.0625 -4.640625 C -5.25 -4.378906 -5.34375 -4.066406 -5.34375 -3.703125 Z M -5.34375 -3.703125 "/></g></g><g style="fill:#000000;fill-opacity:1;"><g transform="translate(398.498046, 119.078114)"><path style="stroke:none" d="M 0.125 -3.390625 C 0.125 -2.878906 0.0390625 -2.414062 -0.125 -2 C -0.289062 -1.582031 -0.535156 -1.238281 -0.859375 -0.96875 C -1.179688 -0.695312 -1.585938 -0.519531 -2.078125 -0.4375 L -2.078125 -1.703125 C -1.710938 -1.785156 -1.425781 -1.96875 -1.21875 -2.25 C -1.007812 -2.53125 -0.90625 -2.910156 -0.90625 -3.390625 C -0.90625 -3.765625 -0.976562 -4.070312 -1.125 -4.3125 C -1.269531 -4.550781 -1.476562 -4.671875 -1.75 -4.671875 C -1.976562 -4.671875 -2.15625 -4.59375 -2.28125 -4.4375 C -2.40625 -4.28125 -2.503906 -4.078125 -2.578125 -3.828125 C -2.648438 -3.585938 -2.710938 -3.320312 -2.765625 -3.03125 C -2.816406 -2.757812 -2.878906 -2.484375 -2.953125 -2.203125 C -3.023438 -1.929688 -3.125 -1.679688 -3.25 -1.453125 C -3.375 -1.222656 -3.539062 -1.039062 -3.75 -0.90625 C -3.96875 -0.769531 -4.25 -0.703125 -4.59375 -0.703125 C -5.007812 -0.703125 -5.351562 -0.804688 -5.625 -1.015625 C -5.894531 -1.234375 -6.097656 -1.519531 -6.234375 -1.875 C -6.367188 -2.238281 -6.4375 -2.632812 -6.4375 -3.0625 C -6.4375 -3.78125 -6.25 -4.375 -5.875 -4.84375 C -5.507812 -5.320312 -5.003906 -5.617188 -4.359375 -5.734375 L -4.359375 -4.5625 C -4.734375 -4.46875 -5.003906 -4.285156 -5.171875 -4.015625 C -5.335938 -3.742188 -5.421875 -3.425781 -5.421875 -3.0625 C -5.421875 -2.707031 -5.347656 -2.425781 -5.203125 -2.21875 C -5.066406 -2.019531 -4.882812 -1.921875 -4.65625 -1.921875 C -4.457031 -1.921875 -4.300781 -1.992188 -4.1875 -2.140625 C -4.070312 -2.285156 -3.984375 -2.472656 -3.921875 -2.703125 C -3.867188 -2.941406 -3.816406 -3.195312 -3.765625 -3.46875 C -3.710938 -3.75 -3.648438 -4.03125 -3.578125 -4.3125 C -3.503906 -4.601562 -3.398438 -4.863281 -3.265625 -5.09375 C -3.128906 -5.332031 -2.953125 -5.523438 -2.734375 -5.671875 C -2.515625 -5.828125 -2.222656 -5.90625 -1.859375 -5.90625 C -1.265625 -5.90625 -0.785156 -5.679688 -0.421875 -5.234375 C -0.0546875 -4.796875 0.125 -4.179688 0.125 -3.390625 Z M 0.125 -3.390625 "/></g></g></g></svg>