<?xml version="1.0" encoding="UTF-8"?><svg id="Layer_1" xmlns="http://www.w3.org/2000/svg" xmlns:xlink="http://www.w3.org/1999/xlink" viewBox="0 0 851.65 262.19"><defs><style>.cls-1{fill:url(#linear-gradient);}.cls-2{fill:#89899e;}.cls-3{fill:url(#linear-gradient-3);}.cls-4{fill:url(#linear-gradient-4);}.cls-5{fill:url(#linear-gradient-2);}</style><linearGradient id="linear-gradient" x1="633.48" y1="116.41" x2="760.39" y2="116.41" gradientUnits="userSpaceOnUse"><stop offset="0" stop-color="#ce56f0"/><stop offset="1" stop-color="#4843c2"/></linearGradient><linearGradient id="linear-gradient-2" x1="766.13" y1="131.93" x2="789.67" y2="131.93" gradientUnits="userSpaceOnUse"><stop offset="0" stop-color="#ce56f0"/><stop offset="1" stop-color="#4843c2"/></linearGradient><linearGradient id="linear-gradient-3" x1="737.63" y1="115.82" x2="769.85" y2="115.82" xlink:href="#linear-gradient-2"/><linearGradient id="linear-gradient-4" x1="765.51" y1="99.4" x2="788.43" y2="99.4" xlink:href="#linear-gradient-2"/></defs><g><path class="cls-2" d="m426.05,160.34h-13.05v-76.78h14.59l25.89,59.67,25.89-59.67h14.48v76.78h-12.94v-51.88l-22.49,51.88h-9.87l-22.49-51.88v51.88Z"/><path class="cls-2" d="m529.48,161.11c-5.48,0-10.29-1.21-14.42-3.62-4.13-2.41-7.35-5.78-9.65-10.09-2.3-4.31-3.46-9.29-3.46-14.92,0-5.34,1.13-10.09,3.4-14.26,2.27-4.17,5.41-7.46,9.43-9.87,4.02-2.41,8.59-3.62,13.71-3.62s9.76,1.13,13.71,3.4c3.95,2.27,7.04,5.43,9.27,9.49,2.23,4.06,3.35,8.76,3.35,14.09,0,.88-.04,1.81-.11,2.8-.07.99-.18,2.03-.33,3.13h-39.05c.37,2.56,1.19,4.77,2.47,6.64,1.28,1.87,2.91,3.31,4.88,4.33,1.97,1.02,4.24,1.54,6.8,1.54,3.07,0,5.83-.62,8.28-1.86,2.45-1.24,4.15-2.89,5.1-4.94l10.86,3.62c-2.19,4.39-5.45,7.84-9.76,10.37-4.32,2.52-9.14,3.78-14.48,3.78Zm11.85-33.56c-.07-2.27-.7-4.31-1.87-6.14-1.17-1.83-2.71-3.27-4.61-4.33-1.9-1.06-4.02-1.59-6.36-1.59-2.05,0-3.99.51-5.81,1.54-1.83,1.02-3.38,2.43-4.66,4.22-1.28,1.79-2.1,3.89-2.47,6.31h25.78Z"/></g><path class="cls-1" d="m700.72,158.58c-23.25,0-42.17-18.92-42.17-42.17s18.92-42.17,42.17-42.17c15.71,0,29.43,8.64,36.68,21.41l22.46-11.21c-11.39-20.98-33.63-35.26-59.14-35.26-37.08,0-67.24,30.16-67.24,67.24s30.16,67.24,67.24,67.24c25.91,0,48.45-14.74,59.67-36.27l-22.44-11.2c-7.1,13.31-21.12,22.4-37.23,22.4Z"/><g><path class="cls-2" d="m204.38,161.11c-5.26,0-9.98-1.15-14.15-3.45-4.17-2.3-7.42-5.56-9.76-9.76-2.34-4.2-3.51-9.16-3.51-14.86s1.21-10.79,3.62-15.03c2.41-4.24,5.74-7.51,9.98-9.82,4.24-2.3,8.96-3.45,14.15-3.45s10,1.15,14.2,3.45c4.2,2.3,7.55,5.56,10.04,9.76,2.49,4.21,3.73,9.16,3.73,14.86s-1.26,10.79-3.78,15.03c-2.52,4.24-5.92,7.51-10.2,9.82-4.28,2.3-9.05,3.45-14.31,3.45Zm-.11-11.08c2.56,0,4.99-.62,7.29-1.86,2.3-1.24,4.19-3.13,5.65-5.65,1.46-2.52,2.19-5.76,2.19-9.71s-.7-6.96-2.08-9.49c-1.39-2.52-3.22-4.4-5.48-5.65-2.27-1.24-4.72-1.86-7.35-1.86s-4.92.62-7.07,1.86c-2.16,1.24-3.89,3.13-5.21,5.65-1.32,2.52-1.97,5.76-1.97,9.71s.64,6.96,1.92,9.49c1.28,2.52,2.98,4.41,5.1,5.65,2.12,1.24,4.46,1.86,7.02,1.86Z"/><path class="cls-2" d="m239.91,81.37h12.39v78.97h-12.39v-78.97Z"/><path class="cls-2" d="m264.59,81.37h12.39v78.97h-12.39v-78.97Z"/><path class="cls-2" d="m321.96,160.34l-1.1-6.69c-1.75,2.34-3.84,4.13-6.25,5.37-2.41,1.24-5.63,1.86-9.65,1.86-3.8,0-7.09-.64-9.87-1.92-2.78-1.28-4.92-3.07-6.42-5.37-1.5-2.3-2.25-4.99-2.25-8.06,0-4.61,1.7-8.46,5.1-11.57,3.4-3.11,8.39-5.03,14.97-5.76l14.37-1.54v-4.28c0-1.75-.77-3.35-2.3-4.77-1.54-1.43-3.99-2.14-7.35-2.14-2.93,0-5.47.71-7.62,2.14-2.16,1.43-3.6,3.56-4.33,6.42l-10.75-3.95c1.39-4.83,4.15-8.59,8.28-11.3,4.13-2.7,9.16-4.06,15.08-4.06,7.17,0,12.54,1.79,16.12,5.37,3.58,3.58,5.37,8.15,5.37,13.71v36.53h-11.41Zm-1.1-24.13l-13.16,1.65c-2.78.37-4.86,1.15-6.25,2.36-1.39,1.21-2.08,2.73-2.08,4.55,0,1.68.68,3.13,2.03,4.33,1.35,1.21,3.2,1.81,5.54,1.81,3,0,5.54-.55,7.62-1.65s3.66-2.67,4.72-4.72c1.06-2.05,1.59-4.57,1.59-7.57v-.77Z"/><path class="cls-2" d="m353.66,113.62c1.76-2.49,4.24-4.59,7.46-6.31,3.22-1.72,7.02-2.58,11.41-2.58,4.83,0,9.07,1.17,12.72,3.51,3.66,2.34,6.53,5.63,8.61,9.87,2.08,4.24,3.13,9.18,3.13,14.81s-1.04,10.57-3.13,14.81c-2.08,4.24-4.97,7.53-8.67,9.87-3.69,2.34-7.92,3.51-12.67,3.51-4.17,0-7.72-.73-10.64-2.19-2.93-1.46-5.3-3.25-7.13-5.37l-.88,6.8h-11.19v-78.97h12.39v32.58l-1.43-.33Zm30.05,19.3c0-5.05-1.33-9.14-4-12.28-2.67-3.14-6.09-4.72-10.26-4.72-2.63,0-5.03.66-7.18,1.97-2.16,1.32-3.89,3.24-5.21,5.76-1.32,2.52-1.97,5.61-1.97,9.27s.66,6.75,1.97,9.27c1.32,2.52,3.05,4.44,5.21,5.76,2.16,1.32,4.55,1.97,7.18,1.97,4.17,0,7.59-1.57,10.26-4.72,2.67-3.14,4-7.24,4-12.28Z"/><path class="cls-2" d="m134.22,160.92c-21.83,0-39.58-17.76-39.58-39.58s17.76-39.58,39.58-39.58c14.42,0,27.71,7.85,34.68,20.49l-11.53,6.36c-4.66-8.44-13.53-13.68-23.15-13.68-14.57,0-26.42,11.85-26.42,26.42s11.85,26.42,26.42,26.42c9.86,0,18.83-5.43,23.41-14.17l11.65,6.12c-6.87,13.08-20.3,21.21-35.07,21.21Z"/></g><path class="cls-5" d="m781.09,126.4c.4,1.09,1.25,1.95,2.34,2.34l5.38,1.96c1.14.42,1.14,2.04,0,2.46l-5.38,1.96c-1.09.4-1.95,1.25-2.34,2.34l-1.96,5.38c-.42,1.14-2.04,1.14-2.46,0l-1.96-5.38c-.4-1.09-1.25-1.95-2.34-2.34l-5.38-1.96c-1.14-.42-1.14-2.04,0-2.46l5.38-1.96c1.09-.4,1.95-1.25,2.34-2.34l1.96-5.38c.42-1.14,2.04-1.14,2.46,0l1.96,5.38Z"/><path class="cls-3" d="m758.1,108.25c.54,1.49,1.72,2.66,3.21,3.2l7.36,2.68c1.57.57,1.57,2.79,0,3.36l-7.36,2.68c-1.49.54-2.66,1.72-3.21,3.21l-2.68,7.36c-.57,1.57-2.79,1.57-3.36,0l-2.68-7.36c-.54-1.49-1.72-2.66-3.21-3.21l-7.36-2.68c-1.57-.57-1.57-2.79,0-3.36l7.36-2.68c1.49-.54,2.66-1.72,3.21-3.2l2.68-7.36c.57-1.57,2.79-1.57,3.36,0l2.68,7.36Z"/><path class="cls-4" d="m780.08,94.02c.39,1.06,1.22,1.89,2.28,2.28l5.24,1.91c1.12.41,1.12,1.99,0,2.39l-5.24,1.91c-1.06.39-1.89,1.22-2.28,2.28l-1.91,5.24c-.41,1.12-1.98,1.12-2.39,0l-1.91-5.24c-.39-1.06-1.22-1.89-2.28-2.28l-5.24-1.91c-1.12-.41-1.12-1.98,0-2.39l5.24-1.91c1.06-.39,1.89-1.22,2.28-2.28l1.91-5.24c.41-1.12,1.98-1.12,2.39,0l1.91,5.24Z"/><path class="cls-2" d="m689.01,101.86v29.09c0,3.4,3.7,5.51,6.63,3.78l24.59-14.55c2.87-1.7,2.87-5.86,0-7.56l-24.59-14.55c-2.93-1.73-6.63.38-6.63,3.78Z"/><path class="cls-2" d="m560.3,111.84c-2.89,0-5.13-2.32-5.13-5.13s2.27-5.16,5.16-5.16,5.13,2.32,5.13,5.13-2.27,5.16-5.16,5.16Zm.03-9.78c-2.63,0-4.62,2.09-4.62,4.65s1.98,4.62,4.59,4.62,4.62-2.09,4.62-4.65-1.98-4.62-4.59-4.62Zm1.14,5.15l1.45,2.03h-1.22l-1.31-1.86h-1.12v1.86h-1.02v-5.39h2.4c1.25,0,2.08.64,2.08,1.72,0,.88-.51,1.42-1.25,1.64Zm-.87-2.43h-1.34v1.71h1.34c.67,0,1.07-.33,1.07-.85,0-.55-.4-.85-1.07-.85Z"/><g><path class="cls-2" d="m337.48,200.76v5.03c0,.59.64.95,1.14.65l4.25-2.51c.5-.29.5-1.01,0-1.31l-4.25-2.51c-.51-.3-1.14.07-1.14.65Z"/><g><path class="cls-2" d="m162.3,206.28h-.08l-4.66-6.98v10.64h-2.57v-14.89h2.79l4.53,7.04,4.53-7.04h2.79v14.89h-2.62v-10.68l-4.7,7.02Z"/><path class="cls-2" d="m183.43,209.93v-1.38c-.77.91-1.94,1.62-3.64,1.62-2.13,0-4-1.21-4-3.47v-.04c0-2.43,1.94-3.62,4.55-3.62,1.36,0,2.23.19,3.11.47v-.28c0-1.55-.98-2.4-2.77-2.4-1.25,0-2.19.28-3.21.7l-.7-2.06c1.23-.55,2.45-.94,4.28-.94,3.32,0,4.93,1.74,4.93,4.74v6.66h-2.55Zm.06-4.77c-.66-.25-1.57-.45-2.57-.45-1.62,0-2.57.66-2.57,1.81v.04c0,1.06.96,1.66,2.17,1.66,1.7,0,2.98-.96,2.98-2.36v-.7Z"/><path class="cls-2" d="m195.03,209.93h-2.57v-11.23h2.57v1.75c.72-1.06,1.77-1.98,3.51-1.98,2.53,0,4,1.7,4,4.32v7.15h-2.57v-6.38c0-1.74-.87-2.74-2.4-2.74s-2.53,1.04-2.53,2.79v6.34Z"/><path class="cls-2" d="m214.73,210.25c-.89,2.3-1.89,3.15-3.7,3.15-1.08,0-1.87-.26-2.66-.68l.87-1.91c.47.26.98.43,1.51.43.72,0,1.17-.32,1.59-1.3l-4.68-11.23h2.74l3.19,8.34,2.91-8.34h2.68l-4.47,11.55Z"/><path class="cls-2" d="m234.9,195.04h2.62v12.51h7.83v2.38h-10.44v-14.89Z"/><path class="cls-2" d="m256.16,208.08c1.25,0,2.15-.47,3.04-1.34l1.51,1.34c-1.06,1.28-2.53,2.11-4.59,2.11-3.25,0-5.76-2.36-5.76-5.85,0-3.23,2.28-5.87,5.49-5.87,3.57,0,5.38,2.81,5.38,6.06,0,.23-.02.45-.04.7h-8.25c.3,1.83,1.57,2.85,3.23,2.85Zm2.51-4.55c-.17-1.66-1.15-2.96-2.85-2.96-1.57,0-2.68,1.21-2.91,2.96h5.76Z"/><path class="cls-2" d="m269.8,209.93h-2.57v-11.23h2.57v1.75c.72-1.06,1.77-1.98,3.51-1.98,2.53,0,4,1.7,4,4.32v7.15h-2.57v-6.38c0-1.74-.87-2.74-2.4-2.74s-2.53,1.04-2.53,2.79v6.34Z"/><path class="cls-2" d="m287.67,210.15c-1.6,0-3.36-.57-4.76-1.68l1.15-1.74c1.21.92,2.53,1.38,3.68,1.38s1.74-.47,1.74-1.21v-.04c0-.87-1.19-1.17-2.51-1.57-1.66-.47-3.51-1.15-3.51-3.3v-.04c0-2.13,1.77-3.43,4-3.43,1.4,0,2.94.49,4.13,1.28l-1.02,1.83c-1.08-.66-2.23-1.06-3.17-1.06-1,0-1.57.47-1.57,1.13v.04c0,.81,1.21,1.15,2.53,1.57,1.64.51,3.49,1.25,3.49,3.28v.04c0,2.36-1.83,3.53-4.17,3.53Z"/><path class="cls-2" d="m303.05,208.08c1.25,0,2.15-.47,3.04-1.34l1.51,1.34c-1.06,1.28-2.53,2.11-4.59,2.11-3.25,0-5.76-2.36-5.76-5.85,0-3.23,2.28-5.87,5.49-5.87,3.57,0,5.38,2.81,5.38,6.06,0,.23-.02.45-.04.7h-8.25c.3,1.83,1.57,2.85,3.23,2.85Zm2.51-4.55c-.17-1.66-1.15-2.96-2.85-2.96-1.57,0-2.68,1.21-2.91,2.96h5.76Z"/><path class="cls-2" d="m317.97,210.15c-1.6,0-3.36-.57-4.76-1.68l1.15-1.74c1.21.92,2.53,1.38,3.68,1.38s1.74-.47,1.74-1.21v-.04c0-.87-1.19-1.17-2.51-1.57-1.66-.47-3.51-1.15-3.51-3.3v-.04c0-2.13,1.77-3.43,4-3.43,1.4,0,2.94.49,4.13,1.28l-1.02,1.83c-1.08-.66-2.23-1.06-3.17-1.06-1,0-1.57.47-1.57,1.13v.04c0,.81,1.21,1.15,2.53,1.57,1.64.51,3.49,1.25,3.49,3.28v.04c0,2.36-1.83,3.53-4.17,3.53Z"/><path class="cls-2" d="m364.92,210.19c-4.57,0-7.76-3.47-7.76-7.68s3.23-7.72,7.81-7.72,7.76,3.47,7.76,7.68-3.23,7.72-7.81,7.72Zm0-13c-2.96,0-5.02,2.36-5.02,5.28s2.11,5.32,5.06,5.32,5.02-2.36,5.02-5.28-2.11-5.32-5.06-5.32Z"/><path class="cls-2" d="m381.59,209.93h-2.57v-11.23h2.57v1.75c.72-1.06,1.77-1.98,3.51-1.98,2.53,0,4,1.7,4,4.32v7.15h-2.57v-6.38c0-1.74-.87-2.74-2.4-2.74s-2.53,1.04-2.53,2.79v6.34Z"/><path class="cls-2" d="m400.8,208.08c1.25,0,2.15-.47,3.04-1.34l1.51,1.34c-1.06,1.28-2.53,2.11-4.59,2.11-3.25,0-5.76-2.36-5.76-5.85,0-3.23,2.28-5.87,5.49-5.87,3.57,0,5.38,2.81,5.38,6.06,0,.23-.02.45-.04.7h-8.25c.3,1.83,1.57,2.85,3.23,2.85Zm2.51-4.55c-.17-1.66-1.15-2.96-2.85-2.96-1.57,0-2.68,1.21-2.91,2.96h5.76Z"/><path class="cls-2" d="m427.69,201.3c3.15.77,4.79,1.89,4.79,4.38,0,2.81-2.19,4.47-5.32,4.47-2.28,0-4.42-.79-6.21-2.38l1.57-1.87c1.43,1.23,2.85,1.94,4.7,1.94,1.62,0,2.64-.75,2.64-1.89,0-1.08-.6-1.66-3.36-2.3-3.17-.77-4.96-1.7-4.96-4.47,0-2.6,2.13-4.34,5.08-4.34,2.17,0,3.89.66,5.4,1.87l-1.4,1.98c-1.34-1-2.68-1.53-4.04-1.53-1.53,0-2.42.79-2.42,1.79,0,1.17.68,1.68,3.53,2.36Z"/><path class="cls-2" d="m441.67,206.42c0,1,.51,1.4,1.38,1.4.57,0,1.08-.13,1.6-.38v2.11c-.64.36-1.36.57-2.32.57-1.89,0-3.23-.83-3.23-3.3v-5.91h-1.42v-2.21h1.42v-3.08h2.57v3.08h3.02v2.21h-3.02v5.51Z"/><path class="cls-2" d="m455.72,210.19c-3.42,0-5.96-2.62-5.96-5.83s2.55-5.89,6-5.89,5.98,2.62,5.98,5.85-2.55,5.87-6.02,5.87Zm0-9.46c-2.06,0-3.38,1.62-3.38,3.6s1.43,3.64,3.42,3.64,3.4-1.62,3.4-3.6-1.42-3.64-3.45-3.64Z"/><path class="cls-2" d="m470.34,209.93h-2.57v-11.23h2.57v2.53c.7-1.68,2-2.83,3.98-2.74v2.72h-.15c-2.25,0-3.83,1.47-3.83,4.45v4.28Z"/><path class="cls-2" d="m485.95,210.25c-.89,2.3-1.89,3.15-3.7,3.15-1.08,0-1.87-.26-2.66-.68l.87-1.91c.47.26.98.43,1.51.43.72,0,1.17-.32,1.59-1.3l-4.68-11.23h2.74l3.19,8.34,2.91-8.34h2.68l-4.47,11.55Z"/></g></g></svg>